{
    "asset": {
        "version": "2.0",
        "generator": "Open Asset Import Library (assimp v5.2.cf7d3637)"
    },
    "extensionsUsed": [
        "KHR_materials_volume",
        "KHR_materials_ior",
        "FB_ngon_encoding"
    ],
    "accessors": [
        {
            "bufferView": 0,
            "byteOffset": 0,
            "componentType": 5126,
            "count": 27,
            "type": "VEC3",
            "max": [
                0.43353599309921267,
                0.4166620075702667,
                0.3183720111846924
            ],
            "min": [
                -0.15353700518608094,
                -0.22118200361728669,
                -0.3916819989681244
            ]
        },
        {
            "bufferView": 1,
            "byteOffset": 0,
            "componentType": 5126,
            "count": 27,
            "type": "VEC3",
            "max": [
                0.0,
                0.0,
                0.0
            ],
            "min": [
                0.0,
                0.0,
                0.0
            ]
        },
        {
            "bufferView": 2,
            "byteOffset": 0,
            "componentType": 5126,
            "count": 27,
            "type": "VEC2",
            "max": [
                0.0,
                1.0
            ],
            "min": [
                0.0,
                1.0
            ]
        },
        {
            "bufferView": 3,
            "byteOffset": 0,
            "componentType": 5125,
            "count": 18,
            "type": "SCALAR",
            "max": [
                17
            ],
            "min": [
                0
            ]
        },
        {
            "bufferView": 4,
            "byteOffset": 0,
            "componentType": 5126,
            "count": 14631,
            "type": "VEC3",
            "max": [
                0.575963020324707,
                0.9465579986572266,
                0.6222419738769531
            ],
            "min": [
                -0.5788580179214478,
                -0.9477649927139282,
                -0.6209020018577576
            ]
        },
        {
            "bufferView": 5,
            "byteOffset": 0,
            "componentType": 5126,
            "count": 14631,
            "type": "VEC3",
            "max": [
                0.9999350309371948,
                0.9916895627975464,
                0.9993164539337158
            ],
            "min": [
                -0.9993815422058106,
                -0.9998672008514404,
                -0.9977795481681824
            ]
        },
        {
            "bufferView": 6,
            "byteOffset": 0,
            "componentType": 5126,
            "count": 14631,
            "type": "VEC2",
            "max": [
                1.0000020265579224,
                1.0000079870224
            ],
            "min": [
                0.0,
                0.0
            ]
        },
        {
            "bufferView": 7,
            "byteOffset": 0,
            "componentType": 5125,
            "count": 14631,
            "type": "SCALAR",
            "max": [
                14630
            ],
            "min": [
                0
            ]
        }
    ],
    "buffers": [
        {
            "byteLength": 527652,
            "uri": "result.bin"
        }
    ],
    "bufferViews": [
        {
            "buffer": 0,
            "byteOffset": 0,
            "byteLength": 324,
            "target": 34962
        },
        {
            "buffer": 0,
            "byteOffset": 324,
            "byteLength": 324,
            "target": 34962
        },
        {
            "buffer": 0,
            "byteOffset": 648,
            "byteLength": 216,
            "target": 34962
        },
        {
            "buffer": 0,
            "byteOffset": 864,
            "byteLength": 72,
            "target": 34963
        },
        {
            "buffer": 0,
            "byteOffset": 936,
            "byteLength": 175572,
            "target": 34962
        },
        {
            "buffer": 0,
            "byteOffset": 176508,
            "byteLength": 175572,
            "target": 34962
        },
        {
            "buffer": 0,
            "byteOffset": 352080,
            "byteLength": 117048,
            "target": 34962
        },
        {
            "buffer": 0,
            "byteOffset": 469128,
            "byteLength": 58524,
            "target": 34963
        }
    ],
    "materials": [
        {
            "name": "DefaultMaterial",
            "pbrMetallicRoughness": {
                "baseColorFactor": [
                    0.6000000238418579,
                    0.6000000238418579,
                    0.6000000238418579,
                    1.0
                ],
                "metallicFactor": 0.0
            },
            "extensions": {
                "KHR_materials_ior": {
                    "ior": 1.0
                }
            }
        },
        {
            "name": "place_holder.003",
            "pbrMetallicRoughness": {
                "baseColorFactor": [
                    0.6000000238418579,
                    0.6000000238418579,
                    0.6000000238418579,
                    1.0
                ],
                "metallicFactor": 0.0
            },
            "extensions": {
                "KHR_materials_ior": {
                    "ior": 1.0
                }
            }
        }
    ],
    "meshes": [
        {
            "name": "model.002",
            "primitives": [
                {
                    "mode": 1,
                    "material": 1,
                    "indices": 3,
                    "attributes": {
                        "POSITION": 0,
                        "NORMAL": 1,
                        "TEXCOORD_0": 2
                    }
                },
                {
                    "mode": 4,
                    "material": 1,
                    "indices": 7,
                    "attributes": {
                        "POSITION": 4,
                        "NORMAL": 5,
                        "TEXCOORD_0": 6
                    }
                }
            ]
        }
    ],
    "nodes": [
        {
            "name": "uploads_files_5653126_Pine.obj",
            "children": [
                1
            ]
        },
        {
            "name": "model.002",
            "mesh": 0
        }
    ],
    "scenes": [
        {
            "nodes": [
                0
            ]
        }
    ],
    "scene": 0
}