<?xml version="1.0" standalone="no"?>
<!DOCTYPE svg PUBLIC "-//W3C//DTD SVG 20010904//EN"
 "http://www.w3.org/TR/2001/REC-SVG-20010904/DTD/svg10.dtd">
<svg version="1.0" xmlns="http://www.w3.org/2000/svg"
 width="176.000000pt" height="216.000000pt" viewBox="0 0 176.000000 216.000000"
 preserveAspectRatio="xMidYMid meet">
<metadata>
Created by potrace 1.10, written by Peter Selinger 2001-2011
</metadata>
<g transform="translate(0.000000,216.000000) scale(0.100000,-0.100000)"
fill="#000000" stroke="none">
<path d="M438 2153 c243 -2 641 -2 885 0 243 1 44 2 -443 2 -487 0 -686 -1
-442 -2z"/>
<path d="M92 1977 c-20 -21 -22 -34 -22 -139 0 -114 1 -117 26 -137 15 -12 37
-21 50 -21 l24 0 1 -457 c1 -252 1 -461 0 -465 0 -4 4 -33 10 -65 15 -85 47
-177 85 -245 31 -55 33 -61 19 -81 -34 -48 -4 -87 67 -87 32 0 55 -7 79 -24
70 -51 136 -85 214 -112 71 -25 94 -28 205 -28 110 0 135 4 204 28 80 27 141
58 210 108 29 21 51 28 86 28 33 0 52 6 63 18 19 21 22 48 7 57 -18 11 -11 54
15 95 14 22 40 82 58 133 l32 92 3 501 3 502 31 6 c62 12 68 26 68 156 0 161
1 160 -170 160 -145 0 -160 -6 -170 -73 -4 -27 -10 -32 -36 -35 -29 -3 -32 -1
-38 37 -10 62 -31 71 -163 71 -126 0 -145 -9 -158 -76 -6 -33 -8 -34 -50 -34
-44 0 -45 1 -45 33 0 22 -8 41 -23 55 -21 20 -34 22 -134 22 -124 0 -149 -10
-159 -65 -7 -38 -16 -47 -45 -43 -19 2 -25 11 -30 42 -10 60 -25 66 -169 66
-119 0 -128 -1 -148 -23z m286 -70 l3 -58 67 3 67 3 1 55 1 55 124 0 124 0 3
-57 3 -58 79 0 79 0 3 58 3 57 123 3 122 3 0 -61 0 -60 70 0 70 0 0 60 0 61
138 -3 137 -3 0 -124 0 -124 -48 -1 -48 -1 0 -475 c1 -433 -1 -483 -18 -569
-18 -85 -60 -186 -108 -263 -17 -26 -17 -28 10 -56 15 -15 27 -31 27 -35 0 -4
-30 -7 -66 -7 -60 0 -69 -3 -105 -34 -49 -42 -143 -88 -229 -111 -105 -29
-253 -24 -362 13 -88 30 -169 75 -203 112 -15 16 -31 20 -87 20 -37 0 -68 4
-68 8 0 5 11 19 25 32 29 27 32 52 9 71 -28 23 -81 142 -99 222 -15 68 -17
144 -19 575 l-1 497 -52 3 -53 3 0 118 c0 65 3 121 7 125 4 3 66 5 137 4 l131
-3 3 -58z"/>
<path d="M127 1933 c-4 -3 -7 -48 -7 -100 l0 -93 39 0 c77 0 71 46 71 -523 0
-569 1 -579 68 -714 44 -91 56 -87 14 4 -29 64 -56 151 -66 218 -2 17 -5 254
-5 528 l-1 497 -50 0 -51 0 3 83 3 82 95 0 95 0 5 -55 5 -55 100 0 100 0 5 55
5 55 88 3 87 3 2 -43 c0 -24 1 -50 2 -58 1 -12 21 -15 114 -16 l112 0 1 25 c3
54 7 73 16 82 5 5 45 9 89 7 l79 -3 5 -55 5 -55 100 0 100 0 5 55 5 55 89 3
c49 2 93 -1 98 -6 5 -5 10 -42 11 -83 l1 -74 -51 -3 -52 -3 -3 -527 c-4 -579
-3 -570 -69 -711 -16 -35 -28 -66 -25 -68 7 -7 44 61 72 137 l29 75 3 535 c2
404 6 536 15 542 7 4 31 8 55 8 l42 0 0 100 0 100 -120 0 -120 0 0 -55 0 -56
-87 3 -88 3 -3 53 -3 52 -105 0 -104 0 0 -55 0 -55 -100 0 -100 0 0 55 0 55
-104 0 -105 0 -3 -52 -3 -53 -87 -3 -88 -3 0 40 c0 71 0 71 -119 71 -59 0
-111 -3 -114 -7z"/>
<path d="M160 1833 l0 -62 50 -3 51 -3 -1 -485 c0 -528 4 -589 55 -718 l26
-67 129 0 c128 -1 129 -1 150 -28 29 -37 62 -52 143 -67 124 -23 249 1 308 59
l38 37 121 -1 121 -2 24 47 c57 113 59 130 60 700 l1 525 52 3 52 3 0 62 0 62
-80 0 -80 0 0 -57 0 -58 -125 0 -124 0 -3 56 -3 56 -68 2 -67 1 0 -57 0 -58
-140 0 -140 0 0 55 c0 30 -4 55 -10 56 -5 0 -36 1 -67 1 l-58 1 -3 -57 -3 -56
-124 0 -125 0 0 54 0 54 -80 4 -80 3 0 -62z m122 -12 c3 -37 2 -38 -17 -25
-11 8 -29 14 -41 14 -12 0 -24 6 -27 13 -8 25 6 37 43 37 37 0 38 -1 42 -39z
m394 2 c12 -70 20 -73 174 -73 153 0 159 2 169 68 6 33 10 37 37 40 29 3 32 0
39 -35 12 -68 23 -73 160 -73 81 0 125 4 133 12 9 9 12 2 12 -32 l0 -45 -550
0 -550 0 0 35 0 35 134 -3 133 -4 22 28 c11 15 21 40 21 55 0 25 4 29 30 29
26 0 30 -4 36 -37z m824 28 c0 -5 3 -16 6 -24 4 -11 -4 -16 -28 -19 -18 -3
-41 -8 -50 -13 -14 -5 -18 -2 -18 13 0 41 11 52 51 52 21 0 39 -4 39 -9z
m-120 -236 l0 -45 -530 0 -530 0 0 45 0 45 530 0 530 0 0 -45z m-915 -82 c72
-1 152 -2 180 -2 l50 -1 -63 -59 c-34 -33 -62 -68 -62 -78 0 -30 23 -54 60
-62 l35 -7 0 -74 c0 -68 3 -80 33 -125 33 -50 33 -50 27 -140 -4 -52 -2 -139
5 -203 10 -99 10 -116 -4 -137 -24 -36 -20 -55 17 -69 34 -15 60 -15 90 -2 12
6 24 3 37 -9 25 -23 62 -14 84 20 15 23 16 39 8 118 -15 152 -4 187 48 155 41
-26 77 32 50 81 -8 16 -6 34 10 80 43 129 21 191 -70 191 -35 0 -54 5 -65 18
-55 63 -74 91 -73 108 1 11 -9 34 -21 51 l-24 32 49 55 c45 50 53 55 94 56 25
1 126 2 225 4 99 1 187 4 195 7 10 3 15 -4 15 -21 0 -25 -1 -25 -93 -28 -85
-3 -93 -5 -108 -27 -13 -20 -15 -39 -10 -93 4 -37 7 -76 6 -87 0 -11 -1 -143
-3 -293 l-4 -274 30 -44 c43 -65 74 -87 115 -79 32 6 33 5 27 -17 -14 -45 -22
-48 -140 -48 l-113 0 -43 -35 c-63 -54 -76 -58 -181 -63 -119 -6 -172 7 -230
57 l-42 36 -120 5 -120 5 -13 32 -13 32 33 -6 c39 -6 72 17 114 81 l29 43 -3
274 c-4 332 -4 300 3 382 9 105 -2 116 -118 119 l-93 3 -3 29 c-3 25 -1 28 15
20 10 -5 76 -10 148 -11z m415 2 c0 -8 -25 -33 -55 -56 -68 -51 -73 -81 -20
-106 40 -19 42 -24 16 -47 -17 -16 -19 -15 -35 9 -28 42 -36 29 -36 -55 0 -79
0 -80 25 -80 21 0 25 5 25 28 0 16 9 37 20 47 19 17 21 17 41 0 14 -13 19 -29
17 -50 -3 -25 1 -30 22 -33 14 -2 29 -8 34 -13 6 -5 36 -9 68 -9 l58 0 0 -34
c0 -19 -12 -67 -26 -107 l-26 -72 22 -29 c12 -16 19 -36 16 -44 -6 -16 -26
-19 -26 -4 0 5 -11 20 -24 33 l-25 25 -29 -27 -30 -26 9 -110 c5 -60 10 -125
13 -142 4 -26 0 -35 -16 -44 -28 -15 -42 2 -43 54 -1 58 -24 180 -36 191 -5 6
-9 -35 -9 -111 l0 -121 -40 -4 c-48 -4 -73 7 -50 22 8 5 21 10 28 10 16 0 15
30 -3 165 -11 88 -12 128 -3 202 l11 91 -42 53 c-34 43 -41 58 -35 79 4 14 8
55 9 93 3 75 -1 78 -74 57 -19 -5 -37 -8 -39 -5 -2 2 8 20 23 39 20 27 35 36
56 36 16 0 29 5 29 10 0 6 -4 10 -10 10 -18 0 -11 19 11 31 15 8 132 47 177
58 1 1 2 -6 2 -14z m-564 -148 c1 -59 -2 -77 -12 -77 -11 0 -14 19 -14 81 0
60 3 80 13 77 8 -3 12 -30 13 -81z m44 -33 c0 -58 -4 -104 -9 -104 -15 0 -19
30 -16 125 4 107 3 98 15 90 6 -3 10 -52 10 -111z m40 -19 c0 -76 -4 -135 -9
-135 -14 0 -16 22 -13 151 2 66 7 119 13 119 5 0 9 -57 9 -135z m42 35 c3
-106 2 -120 -13 -120 -5 0 -9 50 -9 110 0 61 4 110 9 110 5 0 11 -45 13 -100z
m46 20 c-4 -99 -22 -111 -26 -16 -3 74 1 96 18 96 7 0 10 -28 8 -80z m747 0
c0 -57 -4 -80 -12 -80 -9 0 -13 23 -13 80 0 57 4 80 13 80 8 0 12 -23 12 -80z
m45 -30 c0 -60 -4 -110 -9 -110 -5 0 -11 6 -13 13 -7 25 4 207 13 207 5 0 9
-49 9 -110z m42 -2 c0 -62 1 -122 2 -132 0 -11 -5 -21 -12 -24 -9 -3 -12 28
-12 132 0 84 4 136 10 136 6 0 11 -45 12 -112z m40 12 c0 -118 0 -120 -11
-120 -5 0 -9 50 -10 111 0 72 4 109 11 107 6 -2 10 -42 10 -98z m48 20 c0 -61
-3 -80 -14 -80 -10 0 -13 17 -11 78 3 89 2 82 15 82 6 0 10 -33 10 -80z m-920
-146 c0 -36 -86 -147 -106 -136 -29 16 -94 105 -94 128 0 13 4 24 8 24 13 0
76 -91 83 -120 5 -23 6 -24 13 -5 9 24 12 30 51 89 34 52 45 57 45 20z m773
-34 c20 -27 37 -59 37 -70 0 -11 5 -20 10 -20 6 0 10 9 10 20 0 19 63 112 81
118 5 2 9 -7 9 -21 0 -32 -87 -140 -105 -129 -26 14 -95 110 -95 131 0 32 12
26 53 -29z m-773 -63 c0 -22 -72 -128 -91 -135 -21 -8 5 55 44 106 21 28 41
52 43 52 2 0 4 -10 4 -23z m740 14 c0 -4 16 -29 35 -54 19 -25 35 -55 35 -67
0 -12 5 -18 10 -15 6 3 10 14 10 24 0 9 8 26 18 37 10 11 27 32 36 47 22 32
36 35 36 7 0 -26 -80 -130 -100 -130 -22 0 -100 106 -100 135 0 14 5 25 10 25
6 0 10 -4 10 -9z m-886 -54 c24 -32 36 -57 34 -73 -3 -22 -7 -19 -45 31 -24
30 -43 64 -43 76 0 29 12 21 54 -34z m-34 -46 c0 -4 16 -28 35 -52 21 -26 35
-55 35 -72 0 -26 -2 -25 -45 27 -42 52 -60 106 -35 106 6 0 10 -4 10 -9z m180
-15 c0 -19 -82 -136 -96 -136 -10 0 12 67 28 85 11 11 27 32 36 48 20 33 32
35 32 3z m773 -29 c20 -28 37 -60 37 -69 0 -28 17 -21 24 10 3 15 24 47 46 72
38 43 39 44 40 19 0 -29 -78 -139 -99 -139 -17 0 -101 113 -101 136 0 35 11
29 53 -29z m-919 -100 c25 -33 36 -57 34 -75 -3 -24 -6 -22 -45 31 -24 31 -43
66 -43 77 0 30 12 23 54 -33z m146 32 c0 -17 -85 -139 -96 -139 -14 0 16 72
45 112 39 53 51 59 51 27z m771 -26 c19 -27 37 -59 40 -73 5 -23 6 -24 14 -5
12 31 77 125 87 125 4 0 8 -11 8 -24 0 -28 -77 -126 -99 -126 -21 0 -101 103
-101 129 0 32 13 25 51 -26z m-923 -96 c22 -30 42 -65 44 -78 4 -22 5 -23 12
-4 16 41 28 61 61 100 33 38 35 39 35 15 0 -32 -78 -140 -100 -140 -23 0 -100
105 -100 135 0 14 2 25 4 25 2 0 22 -24 44 -53z m1030 -51 c-24 -31 -50 -56
-58 -56 -33 1 -124 150 -92 150 15 0 82 -98 82 -120 0 -24 12 -20 16 4 1 8 22
40 45 72 41 54 44 56 47 32 2 -19 -10 -43 -40 -82z m-1028 -49 c22 -30 40 -61
40 -70 0 -10 5 -17 10 -17 6 0 10 8 10 18 0 18 69 120 83 121 4 1 7 -9 7 -21
0 -29 -80 -138 -100 -138 -21 0 -100 108 -100 137 0 13 2 23 5 23 2 0 22 -24
45 -53z m923 0 c20 -28 37 -60 37 -69 0 -10 5 -18 10 -18 6 0 10 7 10 17 0 14
76 123 86 123 2 0 4 -10 4 -23 0 -30 -77 -132 -100 -132 -23 0 -100 102 -100
132 0 34 11 28 53 -30z"/>
<path d="M347 1633 c-4 -3 -7 -15 -7 -25 0 -17 22 -18 505 -18 454 0 506 2
512 16 3 9 0 20 -8 25 -16 10 -992 12 -1002 2z m989 -20 c-10 -11 -966 -11
-972 -1 -3 4 216 8 487 8 271 0 489 -3 485 -7z"/>
<path d="M860 1134 c0 -8 -4 -12 -10 -9 -5 3 -10 2 -10 -3 0 -6 7 -13 16 -16
12 -5 15 -18 13 -54 -1 -26 0 -54 4 -62 3 -8 8 -30 9 -49 2 -19 9 -37 17 -39
10 -3 12 2 8 20 -4 13 -9 67 -13 120 -5 67 -11 99 -20 102 -8 3 -14 -1 -14
-10z"/>
<path d="M912 1142 c2 -5 19 -41 38 -80 32 -67 50 -88 50 -61 0 19 -72 149
-82 149 -5 0 -8 -4 -6 -8z"/>
<path d="M350 465 c0 -4 7 -19 15 -36 15 -28 15 -31 -5 -56 -11 -14 -19 -27
-18 -29 2 -1 38 -4 82 -5 l79 -4 19 50 c11 28 24 54 29 60 20 21 4 25 -96 25
-58 0 -105 -2 -105 -5z m149 -41 c2 -2 -2 -15 -9 -30 -19 -34 -73 -31 -78 5
-2 13 2 27 8 31 12 7 70 3 79 -6z"/>
<path d="M1142 463 c10 -19 41 -90 49 -112 6 -15 14 -21 25 -17 9 3 47 6 85 6
l70 0 -26 27 c-29 32 -30 41 -10 67 8 11 15 23 15 28 0 4 -48 8 -106 8 -58 0
-104 -3 -102 -7z m136 -32 c9 -1 12 -11 10 -28 -2 -23 -9 -29 -34 -31 -25 -2
-33 2 -43 24 -14 31 -1 46 34 39 11 -2 26 -4 33 -4z"/>
<path d="M559 412 c-6 -17 -19 -48 -30 -68 -10 -21 -18 -38 -16 -39 1 -1 23
-14 49 -29 161 -93 410 -92 579 2 l46 25 -27 64 c-15 35 -29 66 -33 69 -3 3
-16 -1 -29 -9 -12 -9 -56 -25 -96 -37 -62 -19 -90 -22 -175 -18 -99 5 -123 11
-245 65 -7 3 -16 -7 -23 -25z m75 -44 c21 -78 23 -98 10 -98 -19 0 -35 35 -27
57 6 16 5 16 -10 4 -13 -10 -14 -17 -7 -26 13 -15 -3 -30 -20 -20 -16 10 -12
30 10 50 10 9 19 20 18 24 -2 23 20 31 26 9z m486 -18 c0 -6 -7 -10 -15 -10
-8 0 -15 5 -15 10 0 6 -4 10 -10 10 -13 0 -13 -40 0 -60 5 -8 10 -12 10 -7 0
19 2 23 16 30 9 5 18 7 20 4 8 -8 -8 -38 -28 -48 -15 -8 -23 -6 -38 13 -25 30
-25 53 2 72 22 15 58 7 58 -14z m-375 10 c3 -5 -1 -10 -9 -10 -9 0 -17 -8 -17
-17 -1 -10 -3 -25 -4 -33 -1 -8 -3 -23 -4 -32 0 -10 -7 -18 -13 -18 -9 0 -13
17 -13 50 0 33 4 50 13 50 6 0 12 5 12 10 0 6 6 10 14 10 8 0 18 -4 21 -10z
m247 -27 c36 -32 12 -92 -31 -78 -29 9 -37 48 -15 74 22 25 23 25 46 4z m-227
-43 c0 -40 -3 -50 -15 -48 -25 5 -21 98 4 98 7 0 11 -19 11 -50z m135 30 c0
-23 -10 -26 -29 -7 -11 10 -12 4 -9 -30 3 -39 2 -43 -20 -43 -13 0 -21 4 -18
8 11 19 16 72 6 72 -5 0 -10 -4 -10 -10 0 -5 -4 -10 -10 -10 -5 0 -10 9 -10
20 0 17 7 20 50 20 43 0 50 -3 50 -20z"/>
<path d="M950 313 c0 -5 6 -18 14 -29 17 -22 35 -11 20 13 -12 19 -34 29 -34
16z"/>
<path d="M450 313 c0 -14 95 -73 158 -99 34 -13 87 -29 119 -35 73 -14 252 -5
316 15 55 17 150 67 186 97 41 34 17 30 -36 -6 -202 -136 -482 -138 -677 -6
-58 39 -66 43 -66 34z"/>
</g>
</svg>
